<svg width="16" height="16" viewBox="0 0 16 16" fill="none" xmlns="http://www.w3.org/2000/svg">
<path d="M6.66675 1.33334H9.33341M6.66675 14.1574C7.02059 14.4741 7.48785 14.6667 8.00008 14.6667C8.51232 14.6667 8.97958 14.4741 9.33341 14.1574M3.39004 12.3333C2.85305 12.3333 2.50379 11.8271 2.74394 11.3969L3.62569 9.81723C4.12721 8.91875 4.38831 7.92802 4.38831 6.92349V6.50981C4.38831 5.41195 4.99878 4.44181 5.93224 3.8569C5.9766 3.8291 6.0217 3.80217 6.0675 3.77614C6.62633 3.45847 7.28923 3.27452 8.00008 3.27452C8.71094 3.27452 9.37383 3.45847 9.93267 3.77614C9.97846 3.80217 10.0236 3.8291 10.0679 3.8569C11.0014 4.44181 11.6119 5.41195 11.6119 6.50981V6.92349C11.6119 7.92802 11.873 8.91875 12.3745 9.81723L13.2562 11.3969C13.4964 11.8271 13.1471 12.3333 12.6101 12.3333H10.0001H6.00008H3.39004Z" stroke="#808897" stroke-width="1.5" stroke-linecap="round"/>
</svg>
