<svg width="24" height="24" viewBox="0 0 24 24" fill="none" xmlns="http://www.w3.org/2000/svg">
<path fill-rule="evenodd" clip-rule="evenodd" d="M8.10332 6.78537C8.41087 5.75199 9.3689 5.00012 10.4999 5.00012C11.3486 5.00012 12.0989 5.4221 12.5524 6.07222C12.8684 6.5252 13.4917 6.63627 13.9447 6.32031C14.3977 6.00435 14.5087 5.381 14.1928 4.92802C13.3813 3.76466 12.03 3.00012 10.4999 3.00012C8.45994 3.00012 6.73942 4.35677 6.18642 6.21487C6.02888 6.74421 6.33028 7.30104 6.85962 7.45858C7.38896 7.61611 7.94578 7.31471 8.10332 6.78537ZM4.55459 6.83215C5.01411 6.52579 5.13826 5.90491 4.83189 5.44539C4.52552 4.98588 3.90465 4.86172 3.44513 5.16809C2.32515 5.9148 1.8295 7.33269 2.05332 8.59172C2.2187 9.52205 2.76612 10.3536 3.67545 10.8574C3.24505 11.6417 2.99988 12.5427 2.99988 13.5001C2.99988 15.6387 4.21999 17.4902 5.99988 18.4001V20.0001C5.99988 20.5524 6.44759 21.0001 6.99988 21.0001H10.4999C11.0522 21.0001 11.4999 20.5524 11.4999 20.0001V19.0001H11.9999V20.0001C11.9999 20.5524 12.4476 21.0001 12.9999 21.0001H16.4999C17.0522 21.0001 17.4999 20.5524 17.4999 20.0001V18.6249C18.5537 18.2135 19.4481 17.4872 20.069 16.5626C21.1415 16.5261 21.9999 15.6452 21.9999 14.5637V12.4365C21.9999 11.3551 21.1415 10.4741 20.069 10.4377C19.6557 9.8221 19.1214 9.29485 18.4999 8.88972V6.50012C18.4999 5.94784 18.0522 5.50012 17.4999 5.50012C15.6514 5.50012 14.4437 6.65025 13.4752 8.00012H8.49988C7.17138 8.00012 5.95172 8.47213 5.00155 9.25597C4.34153 9.06138 4.09242 8.63531 4.02244 8.24167C3.92038 7.66755 4.17468 7.08544 4.55459 6.83215ZM14.8319 9.55482C15.4451 8.63505 15.964 8.06124 16.4999 7.76094V9.46788C16.4999 9.84753 16.7149 10.1944 17.0548 10.3634C17.7222 10.695 18.2696 11.2342 18.6115 11.8957C18.7833 12.2279 19.1259 12.4365 19.4999 12.4365H19.9999V14.5637H19.4999C19.1259 14.5637 18.7833 14.7723 18.6115 15.1045C18.1438 16.0094 17.2933 16.6832 16.2786 16.9134C15.8231 17.0168 15.4999 17.4216 15.4999 17.8886V19.0001H13.9999V18.5001C13.9999 17.6717 13.3283 17.0001 12.4999 17.0001H10.9999C10.1714 17.0001 9.49988 17.6717 9.49988 18.5001V19.0001H7.99988V17.7441C7.99988 17.3202 7.73271 16.9425 7.33312 16.8012C5.97238 16.3203 4.99988 15.0225 4.99988 13.5001C4.99988 12.5391 5.3859 11.6701 6.01369 11.0366C6.64906 10.3954 7.52737 10.0001 8.49988 10.0001H13.9999C14.3342 10.0001 14.6465 9.83302 14.8319 9.55482ZM15.9999 13.0001C16.5522 13.0001 16.9999 12.5524 16.9999 12.0001C16.9999 11.4478 16.5522 11.0001 15.9999 11.0001C15.4476 11.0001 14.9999 11.4478 14.9999 12.0001C14.9999 12.5524 15.4476 13.0001 15.9999 13.0001Z" fill="#AF52DE"/>
</svg>
