<svg width="20" height="20" viewBox="0 0 20 20" fill="none" xmlns="http://www.w3.org/2000/svg">
<path d="M7.49998 17.5H5.83331C4.4526 17.5 3.33331 16.4491 3.33331 15.1528V9.08335C3.33331 8.46083 3.59671 7.8638 4.06555 7.42361L8.82147 2.95832C9.47234 2.34722 10.5276 2.34723 11.1785 2.95832L15.9344 7.42361C16.4033 7.8638 16.6666 8.46083 16.6666 9.08335V15.1528C16.6666 16.4491 15.5474 17.5 14.1666 17.5H12.5M7.49998 17.5V13.3333C7.49998 12.4129 8.24617 11.6667 9.16665 11.6667H10.8333C11.7538 11.6667 12.5 12.4129 12.5 13.3333V17.5M7.49998 17.5H12.5" stroke="#267BD9" stroke-width="2"/>
</svg>
