<svg width="20" height="20" viewBox="0 0 20 20" fill="none" xmlns="http://www.w3.org/2000/svg">
<path fill-rule="evenodd" clip-rule="evenodd" d="M3.16669 7.43332C3.16669 3.6854 6.23695 0.666687 10 0.666687C13.7631 0.666687 16.8334 3.6854 16.8334 7.43332C16.8334 10.9008 15.5004 12.8156 11.6223 18.3863L11.5099 18.5477C10.7807 19.5952 9.21938 19.5952 8.49016 18.5477L8.37779 18.3863C4.49968 12.8156 3.16669 10.9008 3.16669 7.43332ZM10 2.66669C7.31977 2.66669 5.16669 4.81159 5.16669 7.43332C5.16669 10.15 6.03525 11.5182 10 17.216C13.9648 11.5182 14.8334 10.15 14.8334 7.43332C14.8334 4.81159 12.6803 2.66669 10 2.66669ZM7.33335 7.50002C7.33335 6.02726 8.52726 4.83335 10 4.83335C11.4728 4.83335 12.6667 6.02726 12.6667 7.50002C12.6667 8.97278 11.4728 10.1667 10 10.1667C8.52726 10.1667 7.33335 8.97278 7.33335 7.50002ZM10 6.83335C9.63183 6.83335 9.33335 7.13183 9.33335 7.50002C9.33335 7.86821 9.63183 8.16669 10 8.16669C10.3682 8.16669 10.6667 7.86821 10.6667 7.50002C10.6667 7.13183 10.3682 6.83335 10 6.83335Z" fill="#666D80"/>
</svg>
