<svg width="20" height="20" viewBox="0 0 20 20" fill="none" xmlns="http://www.w3.org/2000/svg">
<path d="M4.35746 15.2241H3.91814C2.85878 15.2241 2 14.3653 2 13.3059V5.0314C2 3.97197 2.85878 3.11316 3.91814 3.11316H10.3973C11.4567 3.11316 12.3155 3.97197 12.3155 5.0314V15.2241H7.79807M16.3211 9.21706H12.3155V4.98346H12.8324C13.174 4.98343 13.5094 5.0746 13.804 5.24755C14.0986 5.4205 14.3417 5.66895 14.5081 5.96726L16.3211 9.21706Z" stroke="#666D80" stroke-width="2" stroke-miterlimit="10" stroke-linecap="round" stroke-linejoin="round"/>
<path d="M6.07814 16.8869C7.00585 16.8869 7.7579 16.1352 7.7579 15.2079C7.7579 14.2806 7.00585 13.5289 6.07814 13.5289C5.15043 13.5289 4.39838 14.2806 4.39838 15.2079C4.39838 16.1352 5.15043 16.8869 6.07814 16.8869Z" stroke="#666D80" stroke-width="2" stroke-miterlimit="10" stroke-linecap="round" stroke-linejoin="round"/>
<path d="M13.9953 16.8869C14.923 16.8869 15.675 16.1352 15.675 15.2079C15.675 14.2806 14.923 13.5289 13.9953 13.5289C13.0675 13.5289 12.3155 14.2806 12.3155 15.2079C12.3155 16.1352 13.0675 16.8869 13.9953 16.8869Z" stroke="#666D80" stroke-width="2" stroke-miterlimit="10" stroke-linecap="round" stroke-linejoin="round"/>
<path d="M15.7703 15.2241H16.6921C17.2362 15.2241 17.7031 14.8939 17.9035 14.423M18 10.9591C17.9111 9.98232 17.0898 9.2171 16.0899 9.2171H12.3155V15.2242" stroke="#666D80" stroke-width="2" stroke-miterlimit="10" stroke-linecap="round" stroke-linejoin="round"/>
</svg>
