<svg width="24" height="24" viewBox="0 0 24 24" fill="none" xmlns="http://www.w3.org/2000/svg">
<path fill-rule="evenodd" clip-rule="evenodd" d="M14.9396 4.66053C13.6755 2.44648 10.3245 2.44649 9.06045 4.66054L2.40713 16.3143C1.13558 18.5415 2.94731 21 5.34669 21H18.6533C21.0527 21 22.8644 18.5415 21.5929 16.3143L14.9396 4.66053ZM10.7973 5.65214C11.2937 4.78262 12.7063 4.78262 13.2027 5.65214L19.856 17.3059C20.237 17.9733 19.7859 19 18.6533 19H5.34669C4.21412 19 3.76298 17.9733 4.144 17.3059L10.7973 5.65214ZM13 8.5C13 7.94772 12.5523 7.5 12 7.5C11.4477 7.5 11 7.94772 11 8.5V13.5C11 14.0523 11.4477 14.5 12 14.5C12.5523 14.5 13 14.0523 13 13.5V8.5ZM12 17.5C12.5523 17.5 13 17.0523 13 16.5C13 15.9477 12.5523 15.5 12 15.5C11.4477 15.5 11 15.9477 11 16.5C11 17.0523 11.4477 17.5 12 17.5Z" fill="#0D0D12"/>
</svg>
