<svg width="24" height="24" viewBox="0 0 24 24" fill="none" xmlns="http://www.w3.org/2000/svg">
<path d="M10 14.0433C10.9925 14.1485 11.9657 14.4023 12.8866 14.7978L15.2122 15.7965C16.5319 16.3633 18 15.3933 18 13.9545V7.00629C18 5.56749 16.5319 4.59743 15.2122 5.1642L12.8866 6.16292C11.6418 6.6975 10.3017 6.97314 8.94742 6.97314H6.5C4.567 6.97314 3 8.54338 3 10.4804C3 12.4174 4.567 13.9876 6.5 13.9876H7M10 14.0433C9.65105 14.0063 9.29971 13.9876 8.94742 13.9876H7M10 14.0433V18.9979C10 19.5514 9.55228 20 9 20H8.84713C8.35829 20 7.9411 19.6459 7.86073 19.1627L7 13.9876M10 9.5V11.5M21 8V13" stroke="#0D0D12" stroke-width="2" stroke-linecap="round"/>
</svg>
