<svg width="24" height="24" viewBox="0 0 24 24" fill="none" xmlns="http://www.w3.org/2000/svg">
<path fill-rule="evenodd" clip-rule="evenodd" d="M1 8C1 6.34315 2.34315 5 4 5H5.29198H18.708H20C21.6569 5 23 6.34315 23 8V9.29198V14.708V16C23 17.6569 21.6569 19 20 19H18.708H5.29198H4C2.34315 19 1 17.6569 1 16V14.708V9.29198V8ZM4 7C3.44772 7 3 7.44772 3 8V9.29198V14.708V16C3 16.5523 3.44772 17 4 17H5.29198H18.708H20C20.5523 17 21 16.5523 21 16V14.708V9.29198V8C21 7.44772 20.5523 7 20 7H18.708H5.29198H4ZM12 7.5C12.5523 7.5 13 7.94772 13 8.5V8.77924L13.8162 9.05132C14.3402 9.22596 14.6233 9.79228 14.4487 10.3162C14.274 10.8402 13.7077 11.1233 13.1838 10.9487L12 10.5541L11.5 10.7208V10.7792L13.1325 11.3234C13.9491 11.5956 14.5 12.3599 14.5 13.2208V13.2792C14.5 14.1401 13.9491 14.9044 13.1325 15.1766L13 15.2208V15.5C13 16.0523 12.5523 16.5 12 16.5C11.4477 16.5 11 16.0523 11 15.5V15.2208L10.1838 14.9487C9.65983 14.774 9.37667 14.2077 9.55132 13.6838C9.72596 13.1598 10.2923 12.8767 10.8162 13.0513L12 13.4459L12.5 13.2792L12.5 13.2208L10.8675 12.6766C10.0509 12.4044 9.5 11.6401 9.5 10.7792V10.7208C9.5 9.8599 10.0509 9.09562 10.8675 8.82339L11 8.77924V8.5C11 7.94772 11.4477 7.5 12 7.5ZM6.5 10C7.05228 10 7.5 10.4477 7.5 11V13C7.5 13.5523 7.05228 14 6.5 14C5.94772 14 5.5 13.5523 5.5 13V11C5.5 10.4477 5.94772 10 6.5 10ZM17.5 10C18.0523 10 18.5 10.4477 18.5 11V13C18.5 13.5523 18.0523 14 17.5 14C16.9477 14 16.5 13.5523 16.5 13V11C16.5 10.4477 16.9477 10 17.5 10Z" fill="#0D0D12"/>
</svg>
