<svg width="24" height="24" viewBox="0 0 24 24" fill="none" xmlns="http://www.w3.org/2000/svg">
<path d="M6 9.8835H4.5C3.67157 9.8835 3 9.20482 3 8.36762V8.16524C3 7.36649 3.46547 6.64266 4.18772 6.31826L11.1877 3.1742C11.7049 2.94193 12.2951 2.94193 12.8123 3.1742L19.8123 6.31826C20.5345 6.64266 21 7.36649 21 8.16524V8.36762C21 9.20482 20.3284 9.8835 19.5 9.8835H18M6 9.8835V16.9576M6 9.8835H10M6 16.9576H4.5C3.67157 16.9576 3 17.6363 3 18.4735V19.4841C3 20.3213 3.67157 21 4.5 21H19.5C20.3284 21 21 20.3213 21 19.4841V18.4735C21 17.6363 20.3284 16.9576 19.5 16.9576H18M6 16.9576H10M18 9.8835V16.9576M18 9.8835H14M18 16.9576H14M14 9.8835V16.9576M14 9.8835H10M14 16.9576H10M10 9.8835V16.9576" stroke="#0D0D12" stroke-width="2" stroke-linecap="round" stroke-linejoin="round"/>
</svg>
