<svg width="24" height="24" viewBox="0 0 24 24" fill="none" xmlns="http://www.w3.org/2000/svg">
<path d="M9.10113 5.77523C9.03516 5.52794 9 5.26808 9 5C9 3.34315 10.3431 2 12 2C13.6569 2 15 3.34315 15 5C15 5.26808 14.9648 5.52794 14.8989 5.77523M9.10113 5.77523C9.93938 5.28429 10.9337 5 12 5C13.0663 5 14.0606 5.28429 14.8989 5.77523M9.10113 5.77523C9.03243 5.81546 8.96478 5.85708 8.89823 5.90005C7.49804 6.80399 6.58234 8.3033 6.58234 10V10.6393C6.58234 12.1918 6.19069 13.7229 5.43842 15.1115L4.11579 17.5528C3.75557 18.2177 4.27945 19 5.08493 19H9M14.8989 5.77523C14.9676 5.81546 15.0352 5.85708 15.1018 5.90005C16.502 6.80399 17.4177 8.3033 17.4177 10V10.6393C17.4177 12.1918 17.8093 13.7229 18.5616 15.1115L19.8842 17.5528C20.2444 18.2177 19.7205 19 18.9151 19H15M15 19C15 20.6569 13.6569 22 12 22C10.3431 22 9 20.6569 9 19M15 19H9" stroke="#0D0D12" stroke-width="2"/>
</svg>
