<svg width="24" height="24" viewBox="0 0 24 24" fill="none" xmlns="http://www.w3.org/2000/svg">
<path d="M8 3H6C4.34315 3 3 4.34315 3 6V9M8 3V2M8 3H16M8 3V4M16 3H18C19.6569 3 21 4.34315 21 6V9M16 3V2M16 3V4M3 9V19C3 20.6569 4.34315 22 6 22H18C19.6569 22 21 20.6569 21 19V9M3 9H21M13.5 12.5H16.5L14 17.5M10.5 14V16C10.5 16.8284 9.82843 17.5 9 17.5C8.17157 17.5 7.5 16.8284 7.5 16V14C7.5 13.1716 8.17157 12.5 9 12.5C9.82843 12.5 10.5 13.1716 10.5 14Z" stroke="#0D0D12" stroke-width="2" stroke-linecap="round" stroke-linejoin="round"/>
</svg>
