<svg width="24" height="24" viewBox="0 0 24 24" fill="none" xmlns="http://www.w3.org/2000/svg">
<path d="M9 20C8.79416 20 8.5904 19.9962 8.38908 19.9887M3.78242 15C2.67399 14.4692 2 13.7684 2 13C2 12.2316 2.67399 11.5308 3.78242 11M3.78242 15C2.67399 15.5308 2 16.2316 2 17C2 18.5686 4.80917 19.8561 8.38908 19.9887M3.78242 15C4.93691 15.5528 6.56269 15.9211 8.38908 15.9887M3.78242 11C5.06417 11.6137 6.92683 12 9 12C11.0732 12 12.9358 11.6137 14.2176 11M3.78242 11C2.67399 10.4692 2 9.76835 2 9C2 8.23165 2.67399 7.53076 3.78242 7M14.2176 11C15.326 10.4692 16 9.76835 16 9C16 8.23165 15.326 7.53076 14.2176 7M14.2176 11C14.8263 11.2915 15.3039 11.6342 15.6109 12.0113M14.2176 7C15.326 6.46924 16 5.76835 16 5C16 3.34315 12.866 2 9 2C5.13401 2 2 3.34315 2 5C2 5.76835 2.67399 6.46924 3.78242 7M14.2176 7C12.9358 7.61375 11.0732 8 9 8C6.92683 8 5.06417 7.61375 3.78242 7M20.2176 17C21.326 16.4692 22 15.7684 22 15C22 13.4314 19.1908 12.1439 15.6109 12.0113M20.2176 17C18.9358 17.6137 17.0732 18 15 18C12.9268 18 11.0642 17.6137 9.78242 17M20.2176 17C21.326 17.5308 22 18.2316 22 19C22 19.7684 21.326 20.4692 20.2176 21C18.9358 21.6137 17.0732 22 15 22C12.9268 22 11.0642 21.6137 9.78242 21C9.17375 20.7085 8.69608 20.3658 8.38908 19.9887M9.78242 17C8.67399 17.5308 8 18.2316 8 19C8 19.3464 8.13701 19.6791 8.38908 19.9887M9.78242 17C9.17375 16.7085 8.69608 16.3658 8.38908 15.9887M15.6109 12.0113C15.4096 12.0038 15.2058 12 15 12C11.134 12 8 13.3431 8 15C8 15.3464 8.13701 15.6791 8.38908 15.9887" stroke="#0D0D12" stroke-width="2"/>
</svg>
