<svg width="24" height="24" viewBox="0 0 24 24" fill="none" xmlns="http://www.w3.org/2000/svg">
<path fill-rule="evenodd" clip-rule="evenodd" d="M5 4C3.34315 4 2 5.34315 2 7V10V17C2 18.6569 3.34315 20 5 20H6.29198H17.708H19C20.6569 20 22 18.6569 22 17V10V7C22 5.34315 20.6569 4 19 4H17.708H6.29198H5ZM4 7C4 6.44772 4.44772 6 5 6H6.29198H17.708H19C19.5523 6 20 6.44772 20 7V9H4V7ZM4 11H20V17C20 17.5523 19.5523 18 19 18H17.708H6.29198H5C4.44772 18 4 17.5523 4 17V11ZM16 15C16 16.1046 15.1046 17 14 17C12.8954 17 12 16.1046 12 15C12 13.8954 12.8954 13 14 13C15.1046 13 16 13.8954 16 15ZM16.3331 16.8861C16.5417 16.9599 16.7661 17 17 17C18.1046 17 19 16.1046 19 15C19 13.8954 18.1046 13 17 13C16.7661 13 16.5417 13.0401 16.3331 13.1139C16.7502 13.6292 17 14.2854 17 15C17 15.7146 16.7502 16.3708 16.3331 16.8861Z" fill="#0D0D12"/>
</svg>
