<svg width="24" height="24" viewBox="0 0 24 24" fill="none" xmlns="http://www.w3.org/2000/svg">
<path fill-rule="evenodd" clip-rule="evenodd" d="M5.58112 11.2216C7.40823 8.30868 9.77457 7 12.0001 7C14.2256 7 16.5919 8.30868 18.4191 11.2216C18.717 11.6966 18.717 12.3034 18.4191 12.7784C16.5919 15.6913 14.2256 17 12.0001 17C9.77457 17 7.40823 15.6913 5.58112 12.7784C5.28318 12.3034 5.28318 11.6966 5.58112 11.2216ZM20.1133 10.1588C18.0179 6.81811 15.0794 5 12.0001 5C8.92079 5 5.9823 6.81811 3.88684 10.1588C3.18127 11.2837 3.18127 12.7163 3.88684 13.8412C5.9823 17.1819 8.92079 19 12.0001 19C15.0794 19 18.0179 17.1819 20.1133 13.8412C20.8189 12.7163 20.8189 11.2837 20.1133 10.1588ZM11.9154 10.0018C11.9435 10.0006 11.9717 10 12.0001 10C13.1047 10 14.0001 10.8954 14.0001 12C14.0001 13.1046 13.1047 14 12.0001 14C10.8955 14 10.0001 13.1046 10.0001 12C10.0001 11.9716 10.0007 11.9434 10.0019 11.9153C10.1577 11.9701 10.3254 12 10.5001 12C11.3285 12 12.0001 11.3284 12.0001 10.5C12.0001 10.3253 11.9702 10.1577 11.9154 10.0018ZM12.0001 8C9.79095 8 8.00009 9.79086 8.00009 12C8.00009 14.2091 9.79095 16 12.0001 16C14.2092 16 16.0001 14.2091 16.0001 12C16.0001 9.79086 14.2092 8 12.0001 8Z" fill="#0D0D12"/>
</svg>
