<svg width="24" height="24" viewBox="0 0 24 24" fill="none" xmlns="http://www.w3.org/2000/svg">
<path d="M11.0477 16.4667H9.63817M11.0477 16.4667H12.6283C13.4213 16.4667 14.1818 16.1549 14.7426 15.6L18.4478 11.9333C19.0317 11.3556 19.9783 11.3556 20.5621 11.9333C21.146 12.5111 21.146 13.4479 20.5621 14.0256L16.4369 18.108C14.5646 19.9607 12.0369 21 9.40288 21H3M11.0477 16.4667C11.8262 16.4667 12.4572 15.8422 12.4572 15.0718C12.4572 14.3014 11.8262 13.6769 11.0477 13.6769H8.05762C7.2646 13.6769 6.50406 13.9887 5.94331 14.5436L5.46123 15.0206C4.76791 15.7067 3.92543 16.1697 3 16.3638M8 3H5C4.44772 3 4 3.44772 4 4V9C4 9.55228 4.44772 10 5 10H15C15.5523 10 16 9.55228 16 9V4C16 3.44772 15.5523 3 15 3H12M8 3V7L10 6.5L12 7V3M8 3H12" stroke="#0D0D12" stroke-width="2" stroke-linecap="round" stroke-linejoin="round"/>
</svg>
