<svg width="24" height="24" viewBox="0 0 24 24" fill="none" xmlns="http://www.w3.org/2000/svg">
<path d="M5 11V10C5 6.13401 8.13401 3 12 3C15.866 3 19 6.13401 19 10V11M5 11H6.5C6.77614 11 7 11.2239 7 11.5V16.5C7 16.7761 6.77614 17 6.5 17H5C3.89543 17 3 16.1046 3 15V13C3 11.8954 3.89543 11 5 11ZM19 11H17.5C17.2239 11 17 11.2239 17 11.5V16.5C17 16.7761 17.2239 17 17.5 17H18M19 11C20.1046 11 21 11.8954 21 13V15C21 16.1046 20.1046 17 19 17H18M18 17C18 19 16 20 14 20M14 20V19.5C14 19.2239 13.7761 19 13.5 19H12C11.4477 19 11 19.4477 11 20C11 20.5523 11.4477 21 12 21H13.5C13.7761 21 14 20.7761 14 20.5V20Z" stroke="#0D0D12" stroke-width="2" stroke-linecap="round" stroke-linejoin="round"/>
</svg>
