<svg width="24" height="24" viewBox="0 0 24 24" fill="none" xmlns="http://www.w3.org/2000/svg">
<path d="M4.87889 8.90834L10.586 3.54999C11.367 2.81667 12.6334 2.81667 13.4144 3.54999L19.1215 8.90834M4.87889 8.90834C4.31648 9.43653 4.00021 10.1531 4.00021 10.9V18.1833C4.00021 19.7389 5.34335 21 7.00021 21H9.00018H15.0002H17.0002C18.6571 21 20.0002 19.7389 20.0002 18.1833V10.9C20.0002 10.153 19.6841 9.43656 19.1215 8.90834M4.87889 8.90834L3.00049 10.6722M19.1215 8.90834L21.0002 10.6722M9.00018 16C10.5002 17.5 13.5002 17.5 15.0002 16" stroke="#0D0D12" stroke-width="2" stroke-linecap="round"/>
</svg>
