<svg width="24" height="24" viewBox="0 0 24 24" fill="none" xmlns="http://www.w3.org/2000/svg">
<path fill-rule="evenodd" clip-rule="evenodd" d="M11.2702 4.27902C11.6665 3.90699 12.3335 3.90699 12.7297 4.27902L18.4368 9.63737L18.4376 9.63816C18.8059 9.98433 19 10.4396 19 10.9V18.1833C19 19.1282 18.1649 20 17 20H14.9999H8.99994H6.99997C5.83506 20 4.99997 19.1282 4.99997 18.1833V10.9C4.99997 10.4397 5.19428 9.98402 5.56275 9.63772L5.56313 9.63737L5.56318 9.63732L5.56323 9.63726L11.2702 4.27902ZM14.0987 2.82096L19.8058 8.17931L21.6844 9.94318C22.0871 10.3212 22.107 10.9541 21.729 11.3567C21.5322 11.5663 21.2664 11.6722 21 11.6722V18.1833C21 20.3497 19.1488 22 17 22H14.9999H8.99994H6.99997C4.85116 22 2.99997 20.3497 2.99997 18.1833V11.6722C2.73364 11.6721 2.46797 11.5662 2.27127 11.3567C1.89321 10.9541 1.91311 10.3213 2.31571 9.94323L4.19406 8.17941L4.19411 8.17936L4.19416 8.1793L9.90127 2.82096C11.0671 1.72635 12.9328 1.72635 14.0987 2.82096L13.4142 3.54999L14.0987 2.82096ZM10.9999 14C10.4477 14 9.99994 14.4477 9.99994 15V17C9.99994 17.5523 10.4477 18 10.9999 18H12.9999C13.5522 18 13.9999 17.5523 13.9999 17V15C13.9999 14.4477 13.5522 14 12.9999 14H10.9999Z" fill="#0D0D12"/>
</svg>
