<svg width="24" height="24" viewBox="0 0 24 24" fill="none" xmlns="http://www.w3.org/2000/svg">
<path d="M4.87864 8.90834L10.5858 3.54999C11.3668 2.81667 12.6331 2.81667 13.4142 3.54999L19.1213 8.90834M4.87864 8.90834C4.31623 9.43653 3.99996 10.1531 3.99996 10.9V18.1833C3.99996 19.7389 5.34311 21 6.99996 21H8.99994M4.87864 8.90834C4.87875 8.90824 4.87854 8.90843 4.87864 8.90834ZM4.87864 8.90834L3.00024 10.6722M19.1213 8.90834C19.6839 9.43656 20 10.153 20 10.9V18.1833C20 19.7389 18.6568 21 17 21H14.9999M19.1213 8.90834L21 10.6722M8.99994 21H14.9999M8.99994 21V16C8.99994 14.8954 9.89537 14 10.9999 14H12.9999C14.1045 14 14.9999 14.8954 14.9999 16V21" stroke="#0D0D12" stroke-width="2" stroke-linecap="round"/>
</svg>
