<svg width="24" height="24" viewBox="0 0 24 24" fill="none" xmlns="http://www.w3.org/2000/svg">
<path fill-rule="evenodd" clip-rule="evenodd" d="M11.2703 4.27902C11.6665 3.90699 12.3335 3.90699 12.7297 4.27902L18.4368 9.63737C18.8056 9.98363 19 10.4393 19 10.9V18.1833C19 19.1282 18.1649 20 17 20H7C5.83509 20 5 19.1282 5 18.1833V10.9C5 10.4393 5.19436 9.98363 5.56316 9.63737L11.2703 4.27902ZM14.0987 2.82096C12.9328 1.72635 11.0672 1.72635 9.90131 2.82096L4.1942 8.1793C3.43778 8.8895 3 9.8667 3 10.9V18.1833C3 20.3497 4.8512 22 7 22H17C19.1488 22 21 20.3497 21 18.1833V10.9C21 9.8667 20.5622 8.8895 19.8058 8.17931L14.0987 2.82096ZM11 15C10.4477 15 10 15.4477 10 16V18C10 18.5523 10.4477 19 11 19H13C13.5523 19 14 18.5523 14 18V16C14 15.4477 13.5523 15 13 15H11Z" fill="#0D0D12"/>
</svg>
