<svg width="24" height="24" viewBox="0 0 24 24" fill="none" xmlns="http://www.w3.org/2000/svg">
<path d="M8 18H16M7 3H17C18.1046 3 19 3.89543 19 5V6.0775C19 7.29264 18.4476 8.44189 17.4988 9.20098L14.9761 11.2191C14.4757 11.6195 14.4757 12.3805 14.9761 12.7809L17.4988 14.799C18.4476 15.5581 19 16.7074 19 17.9225V19C19 20.1046 18.1046 21 17 21H7C5.89543 21 5 20.1046 5 19V17.9225C5 16.7074 5.55236 15.5581 6.50122 14.799L9.02391 12.7809C9.52432 12.3805 9.52432 11.6195 9.02391 11.2191L6.50122 9.20098C5.55236 8.44189 5 7.29264 5 6.0775V5C5 3.89543 5.89543 3 7 3Z" stroke="#0D0D12" stroke-width="2" stroke-linecap="round"/>
</svg>
