<svg width="24" height="24" viewBox="0 0 24 24" fill="none" xmlns="http://www.w3.org/2000/svg">
<path d="M4.43813 20.5619C4.89308 20.8398 5.42784 21 6 21H18C19.6569 21 21 19.6569 21 18V14M4.43813 20.5619C4.23437 20.4374 4.04662 20.2893 3.87868 20.1213C3.33579 19.5784 3 18.8284 3 18V16M4.43813 20.5619L9 16M21 14L19.5355 12.5355C17.5829 10.5829 14.4171 10.5829 12.4645 12.5355L9 16M21 14V6C21 4.34315 19.6569 3 18 3H6C4.34315 3 3 4.34315 3 6V16M9 16L7.41421 14.4142C6.63317 13.6332 5.36684 13.6332 4.58579 14.4142L3 16M10.5 8.5C10.5 9.60457 9.60457 10.5 8.5 10.5C7.39543 10.5 6.5 9.60457 6.5 8.5C6.5 7.39543 7.39543 6.5 8.5 6.5C9.60457 6.5 10.5 7.39543 10.5 8.5Z" stroke="#0D0D12" stroke-width="2" stroke-linejoin="round"/>
</svg>
