<svg width="24" height="24" viewBox="0 0 24 24" fill="none" xmlns="http://www.w3.org/2000/svg">
<path fill-rule="evenodd" clip-rule="evenodd" d="M6 2C3.79086 2 2 3.79086 2 6V18C2 19.1043 2.44881 20.1057 3.17157 20.8284C3.3951 21.052 3.64513 21.2492 3.91677 21.4152C4.52424 21.7863 5.2387 22 6 22H18C20.2091 22 22 20.2091 22 18V6C22 3.79086 20.2091 2 18 2H6ZM4 6C4 4.89543 4.89543 4 6 4H18C19.1046 4 20 4.89543 20 6V18C20 19.1046 19.1046 20 18 20H6C5.61697 20 5.26192 19.8933 4.95949 19.7085C4.82361 19.6255 4.69814 19.5266 4.58579 19.4142C4.22276 19.0512 4 18.5526 4 18V6ZM15.7349 11.0561C15.046 9.8543 13.4141 9.6242 12.4407 10.6431L10.7152 12.4491C10.6984 12.4667 10.6839 12.4716 10.6753 12.4731C10.667 12.4745 10.6578 12.474 10.6451 12.4674L10.0291 12.145C9.06128 11.6385 7.90259 11.9806 7.32911 12.8809L6.24891 14.5769C5.62748 15.5525 6.24104 17 7.54533 17H16.4548C17.7236 17 18.35 15.618 17.7891 14.6397L15.7349 11.0561ZM13.8868 12.0247C13.9023 12.0085 13.9131 12.004 13.9177 12.0024C13.9237 12.0003 13.9307 11.9994 13.9389 12.0004C13.9471 12.0015 13.956 12.0045 13.9649 12.0104C13.9728 12.0156 13.9858 12.0264 13.9997 12.0507L15.6904 15H8.35064L9.016 13.9554C9.03535 13.925 9.05551 13.9155 9.06685 13.9123C9.07322 13.9106 9.07857 13.9103 9.08293 13.9107C9.08678 13.9111 9.09281 13.9123 9.10176 13.917L9.71776 14.2394C10.5395 14.6694 11.5281 14.4935 12.1613 13.8307L13.8868 12.0247ZM10 9C10 9.55228 9.55228 10 9 10C8.44772 10 8 9.55228 8 9C8 8.44772 8.44772 8 9 8C9.55228 8 10 8.44772 10 9Z" fill="#0D0D12"/>
</svg>
