<svg width="24" height="24" viewBox="0 0 24 24" fill="none" xmlns="http://www.w3.org/2000/svg">
<path fill-rule="evenodd" clip-rule="evenodd" d="M7 1C4.79086 1 3 2.79086 3 5V19C3 21.2091 4.79086 23 7 23H17C19.2091 23 21 21.2091 21 19V9.24264C21 8.66548 20.8752 8.10113 20.6407 7.5858C20.4442 7.15387 20.1704 6.75623 19.8284 6.41421L15.5858 2.17157C15.2438 1.82956 14.8461 1.55583 14.4142 1.35928C13.8989 1.12476 13.3345 1 12.7574 1H7ZM5 5C5 3.89543 5.89543 3 7 3H12.7574C13.0459 3 13.328 3.06235 13.5858 3.17965C13.733 3.24662 13.8721 3.33149 14 3.43287V7.00007C14 7.55236 14.4477 8.00007 15 8.00007H18.5672C18.6685 8.1279 18.7534 8.26705 18.8204 8.4142C18.9377 8.67196 19 8.95406 19 9.24264V19C19 20.1046 18.1046 21 17 21H7C5.89543 21 5 20.1046 5 19V5ZM7 5C6.44772 5 6 5.44772 6 6C6 6.55228 6.44772 7 7 7H11C11.5523 7 12 6.55228 12 6C12 5.44772 11.5523 5 11 5H7ZM7 9C6.44772 9 6 9.44772 6 10C6 10.5523 6.44772 11 7 11H12C12.5523 11 13 10.5523 13 10C13 9.44772 12.5523 9 12 9H7ZM16.25 11.5C16.25 10.9477 15.8023 10.5 15.25 10.5C14.6977 10.5 14.25 10.9477 14.25 11.5V11.6852C13.2609 12.0164 12.5 12.8286 12.5 13.8864C12.5 14.6547 12.7822 15.3357 13.4101 15.7726C13.9664 16.1596 14.6517 16.25 15.25 16.25C15.7017 16.25 15.8914 16.33 15.9476 16.3692C15.9618 16.379 15.9636 16.3824 15.968 16.392C15.9756 16.4082 16 16.4708 16 16.6136C16 16.613 16 16.613 15.9999 16.6137C15.9989 16.6204 15.9884 16.6912 15.8779 16.7835C15.7637 16.8788 15.5573 16.9773 15.25 16.9773C14.8385 16.9773 14.5976 16.8018 14.5148 16.6964C14.1735 16.2622 13.5448 16.1869 13.1106 16.5282C12.6764 16.8694 12.601 17.4981 12.9423 17.9323C13.2553 18.3306 13.7096 18.6452 14.25 18.8213V19C14.25 19.5523 14.6977 20 15.25 20C15.8023 20 16.25 19.5523 16.25 19V18.8148C17.2391 18.4836 18 17.6714 18 16.6136C18 15.8453 17.7178 15.1643 17.0899 14.7274C16.5336 14.3404 15.8483 14.25 15.25 14.25C14.7983 14.25 14.6086 14.17 14.5524 14.1308C14.5382 14.121 14.5364 14.1176 14.532 14.108C14.5244 14.0918 14.5 14.0292 14.5 13.8864C14.5 13.887 14.5 13.887 14.5001 13.8863C14.5011 13.8796 14.5116 13.8088 14.6221 13.7165C14.7363 13.6212 14.9427 13.5227 15.25 13.5227C15.6615 13.5227 15.9024 13.6982 15.9852 13.8036C16.3265 14.2378 16.9552 14.3131 17.3894 13.9718C17.8236 13.6306 17.899 13.0019 17.5577 12.5677C17.2447 12.1694 16.7904 11.8548 16.25 11.6787V11.5Z" fill="#0D0D12"/>
</svg>
