<svg width="24" height="24" viewBox="0 0 24 24" fill="none" xmlns="http://www.w3.org/2000/svg">
<path fill-rule="evenodd" clip-rule="evenodd" d="M12.0163 8.6361C12.1995 6.598 13.9137 5 16 5C18.2091 5 20 6.79086 20 9C20 11.2091 18.2091 13 16 13C15.5176 13 15.0572 12.915 14.6316 12.7601C13.9324 12.5056 13.0178 12.568 12.3718 13.214L11.0858 14.5H10C9.17157 14.5 8.5 15.1716 8.5 16V16.5H7.5C6.67157 16.5 6 17.1716 6 18V19H4L4 16.4538L11.317 10.0514C11.762 9.66205 11.9719 9.1301 12.0163 8.6361ZM16 3C12.8692 3 10.2993 5.39725 10.0243 8.45704C10.021 8.49396 10.0124 8.52029 10.0053 8.53537C10.0021 8.54233 9.9996 8.54606 9.99848 8.54756L2.68299 14.9486C2.24896 15.3284 2 15.877 2 16.4538V19C2 20.1046 2.89543 21 4 21H6C7.10457 21 8 20.1046 8 19V18.5H9C9.82843 18.5 10.5 17.8284 10.5 17V16.5H11.0858C11.6162 16.5 12.1249 16.2893 12.5 15.9142L13.785 14.6292C13.7879 14.6277 13.7951 14.6247 13.8093 14.6224C13.8406 14.6172 13.8908 14.6188 13.9474 14.6394C14.5891 14.873 15.2808 15 16 15C19.3137 15 22 12.3137 22 9C22 5.68629 19.3137 3 16 3ZM13.7834 14.6303C13.7834 14.6302 13.7838 14.6299 13.7848 14.6294C13.7839 14.6301 13.7834 14.6304 13.7834 14.6303ZM17 9C17.5523 9 18 8.55228 18 8C18 7.44772 17.5523 7 17 7C16.4477 7 16 7.44772 16 8C16 8.55228 16.4477 9 17 9Z" fill="#0D0D12"/>
</svg>
