<svg width="24" height="24" viewBox="0 0 24 24" fill="none" xmlns="http://www.w3.org/2000/svg">
<path d="M18.1054 15.2108L15.8946 10.7892M18.1054 15.2108C18.3746 15.0759 18.6784 15 19 15C20.1046 15 21 15.8954 21 17C21 18.1046 20.1046 19 19 19C17.8954 19 17 18.1046 17 17C17 16.217 17.4499 15.5391 18.1054 15.2108ZM15.8946 10.7892C15.6254 10.9241 15.3216 11 15 11C14.4368 11 13.9279 10.7672 13.5645 10.3926M15.8946 10.7892C16.5501 10.4609 17 9.78299 17 9C17 7.89543 16.1046 7 15 7C13.8954 7 13 7.89543 13 9C13 9.54135 13.2151 10.0325 13.5645 10.3926M8.10538 13.2108L5.89462 8.78925M8.10538 13.2108C8.37457 13.0759 8.67842 13 9 13C9.56321 13 10.0721 13.2328 10.4355 13.6074M8.10538 13.2108C7.44994 13.5391 7 14.217 7 15C7 16.1046 7.89543 17 9 17C10.1046 17 11 16.1046 11 15C11 14.4586 10.7849 13.9675 10.4355 13.6074M5.89462 8.78925C5.62543 8.9241 5.32158 9 5 9C3.89543 9 3 8.10457 3 7C3 5.89543 3.89543 5 5 5C6.10457 5 7 5.89543 7 7C7 7.78299 6.55006 8.46089 5.89462 8.78925ZM13.5645 10.3926L10.4355 13.6074" stroke="#0D0D12" stroke-width="2"/>
</svg>
