<svg width="24" height="24" viewBox="0 0 24 24" fill="none" xmlns="http://www.w3.org/2000/svg">
<path d="M5.89462 15.2108L8.10538 10.7892M5.89462 15.2108C5.62543 15.0759 5.32158 15 5 15C3.89543 15 3 15.8954 3 17C3 18.1046 3.89543 19 5 19C6.10457 19 7 18.1046 7 17C7 16.217 6.55006 15.5391 5.89462 15.2108ZM8.10538 10.7892C8.37457 10.9241 8.67842 11 9 11C9.56321 11 10.0721 10.7672 10.4355 10.3926M8.10538 10.7892C7.44994 10.4609 7 9.78299 7 9C7 7.89543 7.89543 7 9 7C10.1046 7 11 7.89543 11 9C11 9.54135 10.7849 10.0325 10.4355 10.3926M15.8946 13.2108L18.1054 8.78925M15.8946 13.2108C15.6254 13.0759 15.3216 13 15 13C14.4368 13 13.9279 13.2328 13.5645 13.6074M15.8946 13.2108C16.5501 13.5391 17 14.217 17 15C17 16.1046 16.1046 17 15 17C13.8954 17 13 16.1046 13 15C13 14.4586 13.2151 13.9675 13.5645 13.6074M18.1054 8.78925C18.3746 8.9241 18.6784 9 19 9C20.1046 9 21 8.10457 21 7C21 5.89543 20.1046 5 19 5C17.8954 5 17 5.89543 17 7C17 7.78299 17.4499 8.46089 18.1054 8.78925ZM10.4355 10.3926L13.5645 13.6074" stroke="#0D0D12" stroke-width="2"/>
</svg>
