<svg width="24" height="24" viewBox="0 0 24 24" fill="none" xmlns="http://www.w3.org/2000/svg">
<path fill-rule="evenodd" clip-rule="evenodd" d="M9 8C9 6.34315 10.3431 5 12 5C13.6569 5 15 6.34315 15 8V11H9V8ZM17 8V11C18.6569 11 20 12.3431 20 14V18C20 19.6569 18.6569 21 17 21H7C5.34315 21 4 19.6569 4 18V14C4 12.3431 5.34315 11 7 11V8C7 5.23858 9.23858 3 12 3C14.7614 3 17 5.23858 17 8ZM6 14C6 13.4477 6.44772 13 7 13H8H16H17C17.5523 13 18 13.4477 18 14V18C18 18.5523 17.5523 19 17 19H7C6.44772 19 6 18.5523 6 18V14ZM12 17.25C12.6904 17.25 13.25 16.6904 13.25 16C13.25 15.3096 12.6904 14.75 12 14.75C11.3096 14.75 10.75 15.3096 10.75 16C10.75 16.6904 11.3096 17.25 12 17.25Z" fill="#0D0D12"/>
</svg>
