<svg width="24" height="24" viewBox="0 0 24 24" fill="none" xmlns="http://www.w3.org/2000/svg">
<path fill-rule="evenodd" clip-rule="evenodd" d="M12 1C5.92487 1 1 5.92487 1 12C1 18.0751 5.92487 23 12 23C18.0751 23 23 18.0751 23 12C23 5.92487 18.0751 1 12 1ZM3 12C3 7.02944 7.02944 3 12 3C16.9706 3 21 7.02944 21 12C21 16.9706 16.9706 21 12 21C7.02944 21 3 16.9706 3 12ZM11 10C11 9.44772 11.4477 9 12 9C12.5523 9 13 9.44772 13 10V12H11V10ZM15 12V10C15 8.34315 13.6569 7 12 7C10.3431 7 9 8.34315 9 10V12C8.44772 12 8 12.4477 8 13V16C8 16.5523 8.44772 17 9 17H15C15.5523 17 16 16.5523 16 16V13C16 12.4477 15.5523 12 15 12ZM13 14.5C13 15.0523 12.5523 15.5 12 15.5C11.4477 15.5 11 15.0523 11 14.5C11 13.9477 11.4477 13.5 12 13.5C12.5523 13.5 13 13.9477 13 14.5Z" fill="#0D0D12"/>
</svg>
