<svg width="24" height="24" viewBox="0 0 24 24" fill="none" xmlns="http://www.w3.org/2000/svg">
<path d="M20.9422 8.46557L14 12.7857L12.53 13.7005C12.2057 13.9023 11.7943 13.9023 11.47 13.7005L10 12.7857L3.05778 8.46557M20.9422 8.46557C20.9801 8.65517 21 8.85123 21 9.05191V18.013C21 18.5807 20.8409 19.1115 20.5647 19.5635C20.0383 20.4248 19.0866 21 18 21H6C4.91337 21 3.96167 20.4248 3.43531 19.5635C3.15909 19.1115 3 18.5807 3 18.013V9.05191C3 8.85122 3.01988 8.65516 3.05778 8.46557M20.9422 8.46557L14.3307 3.74593C12.9374 2.75136 11.0626 2.75136 9.66931 3.74593L3.05778 8.46557" stroke="#0D0D12" stroke-width="2" stroke-linecap="round" stroke-linejoin="round"/>
</svg>
