<svg width="24" height="24" viewBox="0 0 24 24" fill="none" xmlns="http://www.w3.org/2000/svg">
<path fill-rule="evenodd" clip-rule="evenodd" d="M12.5261 1C6.74169 1 2.05246 5.68923 2.05246 11.4737C2.05246 12.8686 2.32567 14.2021 2.82243 15.4219C2.9555 15.7486 2.96707 16.0578 2.88385 16.3022L1.70855 19.7533C1.17339 21.3247 2.67508 22.8264 4.24652 22.2913L7.69767 21.116C7.94206 21.0328 8.25118 21.0443 8.57793 21.1774C9.79772 21.6742 11.1313 21.9474 12.5261 21.9474C18.3106 21.9474 22.9998 17.2581 22.9998 11.4737C22.9998 5.68923 18.3106 1 12.5261 1ZM4.05246 11.4737C4.05246 6.7938 7.84626 3 12.5261 3C17.206 3 20.9998 6.7938 20.9998 11.4737C20.9998 16.1536 17.206 19.9474 12.5261 19.9474C11.3943 19.9474 10.3166 19.726 9.33227 19.3251C8.65087 19.0476 7.83898 18.9551 7.05293 19.2228L3.60177 20.3981L4.77708 16.9469C5.04477 16.1608 4.95222 15.349 4.67472 14.6676C4.27383 13.6832 4.05246 12.6055 4.05246 11.4737ZM9.5 11.5C9.5 12.0523 9.05228 12.5 8.5 12.5C7.94772 12.5 7.5 12.0523 7.5 11.5C7.5 10.9477 7.94772 10.5 8.5 10.5C9.05228 10.5 9.5 10.9477 9.5 11.5ZM13.5 11.5C13.5 12.0523 13.0523 12.5 12.5 12.5C11.9477 12.5 11.5 12.0523 11.5 11.5C11.5 10.9477 11.9477 10.5 12.5 10.5C13.0523 10.5 13.5 10.9477 13.5 11.5ZM16.5 12.5C17.0523 12.5 17.5 12.0523 17.5 11.5C17.5 10.9477 17.0523 10.5 16.5 10.5C15.9477 10.5 15.5 10.9477 15.5 11.5C15.5 12.0523 15.9477 12.5 16.5 12.5Z" fill="#0D0D12"/>
</svg>
