<svg width="24" height="24" viewBox="0 0 24 24" fill="none" xmlns="http://www.w3.org/2000/svg">
<path d="M13 20.9902V16C13 14.3431 14.3431 13 16 13H20.9902M13 20.9902C12.9196 20.9967 12.8386 21 12.7574 21H6C4.34315 21 3 19.6569 3 18V6C3 4.34315 4.34315 3 6 3H18C19.6569 3 21 4.34315 21 6V12.7574C21 12.8386 20.9967 12.9196 20.9902 13M13 20.9902C13.7068 20.9329 14.3735 20.6265 14.8787 20.1213L20.1213 14.8787C20.6265 14.3735 20.9329 13.7068 20.9902 13" stroke="#0D0D12" stroke-width="2" stroke-linejoin="round"/>
</svg>
