<svg width="24" height="24" viewBox="0 0 24 24" fill="none" xmlns="http://www.w3.org/2000/svg">
<path d="M21 12C21 16.9706 16.9706 21 12 21C10.8149 21 9.68325 20.7709 8.64699 20.3547C8.14194 20.1518 7.5816 20.0992 7.06638 20.2746L3.92432 21.3447C3.1386 21.6122 2.38775 20.8614 2.65533 20.0757L3.72537 16.9336C3.90083 16.4184 3.84822 15.8581 3.64534 15.353C3.22907 14.3167 3 13.1851 3 12C3 7.02944 7.02944 3 12 3M7.5 16H12.5M7.5 12H15.5M21 5.5C21 6.88071 19.8807 8 18.5 8C17.1193 8 16 6.88071 16 5.5C16 4.11929 17.1193 3 18.5 3C19.8807 3 21 4.11929 21 5.5Z" stroke="#0D0D12" stroke-width="2" stroke-linecap="round"/>
</svg>
