<svg width="24" height="24" viewBox="0 0 24 24" fill="none" xmlns="http://www.w3.org/2000/svg">
<path d="M10.2055 19.5733C9.86497 19.9139 9.42656 20.1395 8.95154 20.2186L4.34563 20.9863C3.56372 21.1166 2.88583 20.4387 3.01615 19.6568L3.7838 15.0509C3.86297 14.5759 4.08859 14.1375 4.42911 13.797M10.2055 19.5733L18.7258 11.053L12.9494 5.27665M10.2055 19.5733L4.42911 13.797M4.42911 13.797L12.9494 5.27665M12.9494 5.27665L14.6119 3.61413C15.4308 2.79529 16.7584 2.79529 17.5772 3.61413L20.3859 6.42279C21.2057 7.24258 21.2046 8.57207 20.3834 9.39051L18.7258 11.0427M21 20.9863H15" stroke="#0D0D12" stroke-width="2" stroke-linecap="round" stroke-linejoin="round"/>
</svg>
