<svg width="24" height="24" viewBox="0 0 24 24" fill="none" xmlns="http://www.w3.org/2000/svg">
<path d="M10.5833 8.5C11.3657 7.73356 12.6343 7.73356 13.4167 8.5M7.75 5.72448C10.0972 3.42517 13.9028 3.42517 16.25 5.72448M13.6184 16.0602L10.3861 16.0627C9.34566 16.0635 8.50154 16.8458 8.50068 17.81C8.4999 18.6717 7.82086 19.4051 6.90175 19.5369L3.79102 19.9827C2.8485 20.1178 1.99921 19.4427 2 18.559C2.00118 17.2473 2.44962 15.9366 3.50588 15.0619C8.1119 11.2476 15.2631 10.7276 20.4691 15.0395C21.5348 15.9221 22.0012 17.2427 22 18.5683C21.9992 19.439 21.1612 20.1055 20.2328 19.9738L17.0965 19.529C16.1776 19.3987 15.4999 18.6663 15.5007 17.8046C15.5015 16.8404 14.6588 16.0594 13.6184 16.0602Z" stroke="#0D0D12" stroke-width="2" stroke-linecap="round" stroke-linejoin="round"/>
</svg>
