<svg width="24" height="24" viewBox="0 0 24 24" fill="none" xmlns="http://www.w3.org/2000/svg">
<path fill-rule="evenodd" clip-rule="evenodd" d="M8.10339 6.78536C8.41094 5.75197 9.36897 5.00011 10.5 5.00011C11.3487 5.00011 12.099 5.42209 12.5525 6.0722C12.8684 6.52518 13.4918 6.63625 13.9447 6.32029C14.3977 6.00433 14.5088 5.38098 14.1928 4.92801C13.3814 3.76464 12.03 3.00011 10.5 3.00011C8.46 3.00011 6.73948 4.35675 6.18648 6.21486C6.02894 6.7442 6.33035 7.30102 6.85968 7.45856C7.38902 7.6161 7.94585 7.3147 8.10339 6.78536ZM4.55465 6.83214C5.01417 6.52577 5.13832 5.9049 4.83195 5.44538C4.52559 4.98586 3.90471 4.86171 3.44519 5.16808C2.32521 5.91479 1.82956 7.33268 2.05338 8.59171C2.21876 9.52204 2.76619 10.3536 3.67551 10.8574C3.24512 11.6417 2.99994 12.5427 2.99994 13.5001C2.99994 15.6387 4.22005 17.4902 5.99994 18.4001V20.0001C5.99994 20.5524 6.44766 21.0001 6.99994 21.0001H10.4999C11.0522 21.0001 11.4999 20.5524 11.4999 20.0001V19.0001H11.9999V20.0001C11.9999 20.5524 12.4477 21.0001 12.9999 21.0001H16.4999C17.0522 21.0001 17.4999 20.5524 17.4999 20.0001V18.6249C18.5538 18.2134 19.4482 17.4872 20.069 16.5625C21.1416 16.5261 21.9999 15.6452 21.9999 14.5637V12.4365C21.9999 11.3551 21.1416 10.4741 20.069 10.4377C19.6558 9.82208 19.1215 9.29483 18.4999 8.88971V6.50011C18.4999 5.94782 18.0522 5.50011 17.4999 5.50011C15.6514 5.50011 14.4438 6.65024 13.4753 8.00011H8.49994C7.17145 8.00011 5.95179 8.47212 5.00161 9.25596C4.3416 9.06136 4.09248 8.6353 4.02251 8.24166C3.92045 7.66753 4.17475 7.08543 4.55465 6.83214ZM14.832 9.55481C15.4452 8.63503 15.964 8.06122 16.4999 7.76092V9.46787C16.4999 9.84752 16.7149 10.1944 17.0549 10.3634C17.7223 10.695 18.2697 11.2342 18.6116 11.8957C18.7833 12.2279 19.126 12.4365 19.4999 12.4365H19.9999V14.5637H19.4999C19.126 14.5637 18.7833 14.7723 18.6116 15.1045C18.1438 16.0094 17.2933 16.6831 16.2787 16.9134C15.8232 17.0167 15.4999 17.4216 15.4999 17.8886V19.0001H13.9999V18.5001C13.9999 17.6717 13.3284 17.0001 12.4999 17.0001H10.9999C10.1715 17.0001 9.49994 17.6717 9.49994 18.5001V19.0001H7.99994V17.744C7.99994 17.3202 7.73278 16.9424 7.33319 16.8012C5.97245 16.3203 4.99994 15.0225 4.99994 13.5001C4.99994 12.5391 5.38596 11.6701 6.01375 11.0366C6.64912 10.3954 7.52744 10.0001 8.49994 10.0001H13.9999C14.3343 10.0001 14.6465 9.83301 14.832 9.55481ZM16 13.0001C16.5523 13.0001 17 12.5524 17 12.0001C17 11.4478 16.5523 11.0001 16 11.0001C15.4477 11.0001 15 11.4478 15 12.0001C15 12.5524 15.4477 13.0001 16 13.0001Z" fill="#0D0D12"/>
</svg>
