<svg width="24" height="24" viewBox="0 0 24 24" fill="none" xmlns="http://www.w3.org/2000/svg">
<path fill-rule="evenodd" clip-rule="evenodd" d="M8.92715 8.54142C9.29227 7.63812 9.71277 7.00915 10.192 6.60785C10.6495 6.2248 11.2179 6 12 6C13.8055 6 15 7.41069 15 8.95833C15 10.0229 14.16 10.8363 12.5622 11.5879C11.7057 11.9908 11.0104 12.7635 10.8 13.7626L10.6881 14.294C10.5744 14.8344 10.9202 15.3648 11.4607 15.4785C12.0011 15.5923 12.5315 15.2464 12.6452 14.706L12.7571 14.1746C12.8233 13.86 13.0551 13.5662 13.4135 13.3977C15.0589 12.6237 17 11.3237 17 8.95833C17 6.39263 14.9946 4 12 4C10.7822 4 9.75056 4.36895 8.90803 5.07444C8.08727 5.76169 7.50777 6.71605 7.0729 7.79191C6.86593 8.30395 7.11323 8.88682 7.62527 9.09379C8.1373 9.30076 8.72017 9.05346 8.92715 8.54142ZM11.5 19.75C12.1904 19.75 12.75 19.1904 12.75 18.5C12.75 17.8096 12.1904 17.25 11.5 17.25C10.8096 17.25 10.25 17.8096 10.25 18.5C10.25 19.1904 10.8096 19.75 11.5 19.75Z" fill="#0D0D12"/>
</svg>
