<svg width="24" height="24" viewBox="0 0 24 24" fill="none" xmlns="http://www.w3.org/2000/svg">
<path fill-rule="evenodd" clip-rule="evenodd" d="M12 1C5.92487 1 1 5.92487 1 12C1 18.0751 5.92487 23 12 23C18.0751 23 23 18.0751 23 12C23 5.92487 18.0751 1 12 1ZM3 12C3 7.02944 7.02944 3 12 3C16.9706 3 21 7.02944 21 12C21 16.9706 16.9706 21 12 21C7.02944 21 3 16.9706 3 12ZM9.8615 9.09489C10.4678 8.04967 11.8146 7.68804 12.8695 8.2943C13.9217 8.89901 14.2787 10.2342 13.674 11.2767C13.3709 11.7993 12.8847 12.1505 12.3383 12.2963C11.8046 12.4386 11.4874 12.9866 11.6298 13.5202C11.7721 14.0538 12.3201 14.371 12.8537 14.2287C13.8893 13.9525 14.8235 13.281 15.4041 12.2801C16.5667 10.2757 15.8749 7.71471 13.866 6.56025C11.8599 5.40734 9.29251 6.08968 8.13145 8.09142C7.85435 8.56916 8.017 9.18108 8.49474 9.45818C8.97248 9.73528 9.5844 9.57263 9.8615 9.09489ZM12 18.25C12.6904 18.25 13.25 17.6904 13.25 17C13.25 16.3096 12.6904 15.75 12 15.75C11.3096 15.75 10.75 16.3096 10.75 17C10.75 17.6904 11.3096 18.25 12 18.25Z" fill="#0D0D12"/>
</svg>
