<svg width="24" height="24" viewBox="0 0 24 24" fill="none" xmlns="http://www.w3.org/2000/svg">
<path d="M8 8H16M8 12H16M8 16H16M20 2.69508V21.3047C20 21.6786 19.6088 21.9218 19.2764 21.7546L16.4472 20.3316C16.1657 20.19 15.8343 20.19 15.5528 20.3316L12.4472 21.8936C12.1657 22.0352 11.8343 22.0352 11.5528 21.8936L8.44721 20.3316C8.16569 20.19 7.83431 20.19 7.55279 20.3316L4.72361 21.7546C4.39116 21.9218 4 21.6786 4 21.3047V2.69508C4 2.32119 4.39116 2.078 4.72361 2.24522L7.55279 3.66821C7.83431 3.8098 8.16569 3.8098 8.44721 3.66821L11.5528 2.1062C11.6935 2.0354 11.8468 2 12 2C12.1532 2 12.3064 2.0354 12.4472 2.1062L15.5528 3.66821C15.8343 3.8098 16.1657 3.8098 16.4472 3.66821L19.2764 2.24522C19.6088 2.078 20 2.32119 20 2.69508Z" stroke="#0D0D12" stroke-width="2" stroke-linecap="round" stroke-linejoin="round"/>
</svg>
