<svg width="24" height="24" viewBox="0 0 24 24" fill="none" xmlns="http://www.w3.org/2000/svg">
<path d="M3.14516 17.3504L2.43805 18.0575H2.43805L3.14516 17.3504ZM3.14516 16.6496L3.85226 17.3567L3.14516 16.6496ZM7.35044 20.8548L6.64333 20.1477H6.64333L7.35044 20.8548ZM6.64956 20.8548L7.35667 20.1477L6.64956 20.8548ZM10.8548 17.3504L11.562 18.0575L10.8548 17.3504ZM6.64956 13.1452L5.94245 12.4381L6.64956 13.1452ZM17 9C17 9.55228 17.4477 10 18 10C18.5523 10 19 9.55228 19 9H17ZM19 3C19 2.44772 18.5523 2 18 2C17.4477 2 17 2.44772 17 3H19ZM21 7C21.5523 7 22 6.55228 22 6C22 5.44772 21.5523 5 21 5V7ZM15 5C14.4477 5 14 5.44772 14 6C14 6.55228 14.4477 7 15 7V5ZM4.5 4H9.5V2H4.5V4ZM9 3.5V8.5H11V3.5H9ZM9.5 8H4.5V10H9.5V8ZM5 8.5V3.5H3V8.5H5ZM4.5 8C4.77614 8 5 8.22386 5 8.5H3C3 9.32843 3.67157 10 4.5 10V8ZM9 8.5C9 8.22386 9.22386 8 9.5 8V10C10.3284 10 11 9.32843 11 8.5H9ZM9.5 4C9.22386 4 9 3.77614 9 3.5H11C11 2.67157 10.3284 2 9.5 2V4ZM4.5 2C3.67157 2 3 2.67157 3 3.5H5C5 3.77614 4.77614 4 4.5 4V2ZM15.5 15H20.5V13H15.5V15ZM20 14.5V19.5H22V14.5H20ZM20.5 19H15.5V21H20.5V19ZM16 19.5V14.5H14V19.5H16ZM15.5 19C15.7761 19 16 19.2239 16 19.5H14C14 20.3284 14.6716 21 15.5 21V19ZM20 19.5C20 19.2239 20.2239 19 20.5 19V21C21.3284 21 22 20.3284 22 19.5H20ZM20.5 15C20.2239 15 20 14.7761 20 14.5H22C22 13.6716 21.3284 13 20.5 13V15ZM15.5 13C14.6716 13 14 13.6716 14 14.5H16C16 14.7761 15.7761 15 15.5 15V13ZM6.64333 13.8523L10.1477 17.3567L11.562 15.9425L8.05755 12.4381L6.64333 13.8523ZM10.1477 16.6433L6.64333 20.1477L8.05755 21.562L11.562 18.0575L10.1477 16.6433ZM7.35667 20.1477L3.85226 16.6433L2.43805 18.0575L5.94245 21.562L7.35667 20.1477ZM3.85226 17.3567L7.35667 13.8523L5.94245 12.4381L2.43805 15.9425L3.85226 17.3567ZM3.85226 16.6433C4.04925 16.8403 4.04925 17.1597 3.85226 17.3567L2.43805 15.9425C1.85398 16.5265 1.85398 17.4735 2.43805 18.0575L3.85226 16.6433ZM6.64333 20.1477C6.84032 19.9508 7.15969 19.9508 7.35667 20.1477L5.94245 21.562C6.52652 22.146 7.47348 22.146 8.05755 21.562L6.64333 20.1477ZM10.1477 17.3567C9.95076 17.1597 9.95076 16.8403 10.1477 16.6433L11.562 18.0575C12.146 17.4735 12.146 16.5265 11.562 15.9425L10.1477 17.3567ZM8.05755 12.4381C7.47348 11.854 6.52652 11.854 5.94245 12.4381L7.35667 13.8523C7.15969 14.0492 6.84032 14.0492 6.64333 13.8523L8.05755 12.4381ZM19 9V6H17V9H19ZM19 6V3H17V6H19ZM18 7H21V5H18V7ZM15 7H18V5H15V7Z" fill="#0D0D12"/>
</svg>
