<svg width="24" height="24" viewBox="0 0 24 24" fill="none" xmlns="http://www.w3.org/2000/svg">
<path d="M15.0888 15.0888C17.8543 12.3234 17.8543 7.83961 15.0888 5.07412C12.3234 2.30863 7.83961 2.30863 5.07412 5.07412C2.30863 7.83961 2.30863 12.3234 5.07412 15.0888C7.83961 17.8543 12.3234 17.8543 15.0888 15.0888ZM15.0888 15.0888L18.1746 18.1746M18.1746 18.1746L18.3227 18.0264C18.5203 17.8289 18.8406 17.8289 19.0381 18.0264L20.8518 19.8402C21.0494 20.0377 21.0494 20.358 20.8518 20.5555L20.5555 20.8518C20.358 21.0494 20.0377 21.0494 19.8402 20.8518L18.0264 19.0381C17.8289 18.8406 17.8289 18.5203 18.0264 18.3227L18.1746 18.1746Z" stroke="#0D0D12" stroke-width="2" stroke-linecap="round" stroke-linejoin="round"/>
</svg>
