<svg width="24" height="24" viewBox="0 0 24 24" fill="none" xmlns="http://www.w3.org/2000/svg">
<path fill-rule="evenodd" clip-rule="evenodd" d="M11.4355 4.17138C11.7809 3.94287 12.2191 3.94287 12.5645 4.17138C14.8974 5.71489 17.1241 6.95306 19.9581 7.53066C19.9746 7.53403 19.9883 7.54315 19.9961 7.55266L19.9977 7.55478L19.9994 7.55741L20 7.5586L20 7.55938C19.8001 13.4112 17.5662 18.3089 12.5882 19.908C12.2065 20.0307 11.7936 20.0307 11.4118 19.908C6.43386 18.3089 4.19995 13.4112 4.00004 7.55938L4.00003 7.55851L4.00064 7.55741C4.00126 7.55632 4.00232 7.55468 4.00398 7.55266C4.0118 7.54315 4.02544 7.53403 4.04194 7.53066C6.87594 6.95306 9.10264 5.71489 11.4355 4.17138ZM13.6681 2.50341C12.6536 1.8322 11.3465 1.8322 10.332 2.50341C8.07626 3.99584 6.10335 5.0694 3.64252 5.57095C2.7104 5.76093 1.96586 6.59293 2.00121 7.62766C2.21303 13.8283 4.63235 19.8309 10.8001 21.8122C11.5797 22.0626 12.4204 22.0626 13.1999 21.8122C19.3677 19.8309 21.787 13.8283 21.9989 7.62766C22.0342 6.59293 21.2897 5.76093 20.3575 5.57095C17.8967 5.0694 15.9238 3.99584 13.6681 2.50341ZM12.0033 8C13.1063 8.00176 14 8.89651 14 10C14 10.7403 13.5978 11.3866 13 11.7324V15C13 15.5523 12.5523 16 12 16C11.4477 16 11 15.5523 11 15V11.7325C10.4022 11.3866 10 10.7403 10 10C10 8.8965 10.8937 8.00174 11.9968 8C11.9979 8 11.9989 8 12 8C12.0011 8 12.0022 8 12.0033 8Z" fill="#0D0D12"/>
</svg>
