<svg width="24" height="24" viewBox="0 0 24 24" fill="none" xmlns="http://www.w3.org/2000/svg">
<path d="M12.688 6.46204C12.4317 5.84599 11.5587 5.84599 11.3024 6.46204L10.1178 9.30945C10.0105 9.56749 9.76854 9.74447 9.49005 9.76868L6.68637 10.0124C6.04301 10.0683 5.76618 10.8566 6.23339 11.3024L8.36305 13.334C8.55616 13.5182 8.63683 13.7911 8.5749 14.0507L7.85366 17.0735C7.6988 17.7225 8.40503 18.2355 8.97459 17.8877L11.6041 16.282C11.8442 16.1354 12.1462 16.1354 12.3863 16.282L15.0159 17.8877C15.5854 18.2355 16.2916 17.7225 16.1368 17.0735L15.4158 14.0517C15.3537 13.7916 15.4348 13.5181 15.6287 13.3339L17.7656 11.3034C18.2342 10.858 17.9576 10.0682 17.3134 10.0124L14.5005 9.76857C14.222 9.74443 13.9799 9.56744 13.8726 9.30934L12.688 6.46204Z" stroke="#0D0D12" stroke-width="2"/>
</svg>
