<svg width="24" height="24" viewBox="0 0 24 24" fill="none" xmlns="http://www.w3.org/2000/svg">
<path fill-rule="evenodd" clip-rule="evenodd" d="M9 8C9 6.34315 10.3431 5 12 5C13.6569 5 15 6.34315 15 8V9C15 9.55228 15.4477 10 16 10C16.5523 10 17 9.55228 17 9V8C17 5.23858 14.7614 3 12 3C9.23858 3 7 5.23858 7 8V11C5.34315 11 4 12.3431 4 14V18C4 19.6569 5.34315 21 7 21H17C18.6569 21 20 19.6569 20 18V14C20 12.3431 18.6569 11 17 11H16H9V8ZM6 14C6 13.4477 6.44772 13 7 13H8H16H17C17.5523 13 18 13.4477 18 14V18C18 18.5523 17.5523 19 17 19H7C6.44772 19 6 18.5523 6 18V14ZM12 17.25C12.6904 17.25 13.25 16.6904 13.25 16C13.25 15.3096 12.6904 14.75 12 14.75C11.3096 14.75 10.75 15.3096 10.75 16C10.75 16.6904 11.3096 17.25 12 17.25Z" fill="#0D0D12"/>
</svg>
