<svg width="24" height="24" viewBox="0 0 24 24" fill="none" xmlns="http://www.w3.org/2000/svg">
<path fill-rule="evenodd" clip-rule="evenodd" d="M14.8574 10.8344C15.5799 9.73304 16.0001 8.41559 16.0001 7C16.0001 5.58441 15.5799 4.26696 14.8574 3.16558C15.2195 3.05785 15.603 3 16 3C18.2092 3 20 4.79086 20 7C20 9.20914 18.2092 11 16 11C15.603 11 15.2195 10.9422 14.8574 10.8344ZM17.8741 21C17.9563 20.6804 18.0001 20.3453 18.0001 20V19C18.0001 17.1081 17.3434 15.3696 16.2455 14H17C19.7615 14 22 16.2386 22 19V20C22 20.5523 21.5523 21 21 21H17.8741Z" fill="#0D0D12"/>
<path d="M10 14H8C5.23858 14 3 16.2386 3 19V20C3 20.5523 3.44772 21 4 21H14C14.5523 21 15 20.5523 15 20V19C15 16.2386 12.7614 14 10 14Z" stroke="#0D0D12" stroke-width="2"/>
<path d="M9 11C11.2091 11 13 9.20914 13 7C13 4.79086 11.2091 3 9 3C6.79086 3 5 4.79086 5 7C5 9.20914 6.79086 11 9 11Z" stroke="#0D0D12" stroke-width="2"/>
</svg>
