<svg width="24" height="24" viewBox="0 0 24 24" fill="none" xmlns="http://www.w3.org/2000/svg">
<path fill-rule="evenodd" clip-rule="evenodd" d="M5 3C2.79086 3 1 4.79086 1 7V17C1 19.2091 2.79086 21 5 21H17C19.2091 21 21 19.2091 21 17V15.5C22.1046 15.5 23 14.6046 23 13.5V10.3334C23 9.22881 22.1046 8.33338 21 8.33338V7C21 4.79086 19.2091 3 17 3H5ZM14.5833 15.5H19V17C19 18.1046 18.1046 19 17 19H5C3.89543 19 3 18.1046 3 17V7C3 5.89543 3.89543 5 5 5H17C18.1046 5 19 5.89543 19 7V8.33338H14.5833C12.6043 8.33338 11 9.93769 11 11.9167C11 13.8957 12.6043 15.5 14.5833 15.5ZM13 11.9167C13 11.0423 13.7089 10.3334 14.5833 10.3334H20H21V13.5L20 13.5H14.5833C13.7089 13.5 13 12.7911 13 11.9167ZM14.5 13C15.0523 13 15.5 12.5523 15.5 12C15.5 11.4477 15.0523 11 14.5 11C13.9477 11 13.5 11.4477 13.5 12C13.5 12.5523 13.9477 13 14.5 13Z" fill="#0D0D12"/>
</svg>
