<svg width="24" height="24" viewBox="0 0 24 24" fill="none" xmlns="http://www.w3.org/2000/svg">
<path fill-rule="evenodd" clip-rule="evenodd" d="M17 5.81247C17 3.74868 14.9645 2.30121 13.0151 2.97874L3.70351 6.21507L3.66675 6.22786C2.11451 6.7765 1 8.25681 1 10V18C1 20.2091 2.79086 22 5 22H18C20.2091 22 22 20.2091 22 18V17.2324C22.5978 16.8866 23 16.2403 23 15.5V12.3334C23 11.5931 22.5978 10.9468 22 10.6009V10C22 7.79086 20.2091 6 18 6H17V5.81247ZM4.35507 8.10597L4.33325 8.11354L4.33102 8.11433C3.55404 8.38999 3 9.13158 3 10V18C3 19.1046 3.89543 20 5 20H18C19.1046 20 20 19.1046 20 18V17.5H15.5833C13.6043 17.5 12 15.8957 12 13.9167C12 11.9377 13.6043 10.3334 15.5833 10.3334H20V10C20 8.89543 19.1046 8 18 8H16H5C4.7727 8 4.55618 8.03752 4.35507 8.10597ZM13.6717 4.86789L10.4144 6H15V5.81247C15 5.12454 14.3215 4.64205 13.6717 4.86789ZM14 13.9167C14 13.0423 14.7089 12.3334 15.5833 12.3334H21V15.5L15.5833 15.5C14.7089 15.5 14 14.7911 14 13.9167ZM15.5 15C16.0523 15 16.5 14.5523 16.5 14C16.5 13.4477 16.0523 13 15.5 13C14.9477 13 14.5 13.4477 14.5 14C14.5 14.5523 14.9477 15 15.5 15Z" fill="#0D0D12"/>
</svg>
