<svg width="24" height="24" viewBox="0 0 24 24" fill="none" xmlns="http://www.w3.org/2000/svg">
<path d="M10 2H14M10 21.2361C10.5308 21.7111 11.2316 22 12 22C12.7684 22 13.4692 21.7111 14 21.2361M5.08493 18.5C4.27945 18.5 3.75557 17.7407 4.11579 17.0954L5.43842 14.7258C6.19069 13.3781 6.58234 11.892 6.58234 10.3852V9.76471C6.58234 8.11791 7.49804 6.6627 8.89823 5.78534C8.96478 5.74364 9.03243 5.70324 9.10113 5.6642C9.93938 5.1877 10.9337 4.91176 12 4.91176C13.0663 4.91176 14.0606 5.1877 14.8989 5.6642C14.9676 5.70324 15.0352 5.74364 15.1018 5.78534C16.502 6.6627 17.4177 8.11791 17.4177 9.76471V10.3852C17.4177 11.892 17.8093 13.3781 18.5616 14.7258L19.8842 17.0954C20.2444 17.7407 19.7205 18.5 18.9151 18.5H15H9H5.08493Z" stroke="#0D0D12" stroke-width="2" stroke-linecap="round"/>
</svg>
