<svg width="24" height="24" viewBox="0 0 24 24" fill="none" xmlns="http://www.w3.org/2000/svg">
<path d="M4 18H3C2.45 18 2 17.55 2 17V7C2 6.45 2.45 6 3 6H13C13.55 6 14 6.45 14 7V18H8M18 10H14V8H14.5C14.78 8 15.04 8.11 15.24 8.29C15.44 8.47 15.56 8.72 15.58 9L18 10Z" stroke="#2563EB" stroke-width="2" stroke-linecap="round" stroke-linejoin="round" fill="none"/>
<circle cx="6" cy="19" r="2" stroke="#2563EB" stroke-width="2" fill="none"/>
<circle cx="16" cy="19" r="2" stroke="#2563EB" stroke-width="2" fill="none"/>
<path d="M14 18H18C18.55 18 19 17.55 19 17V11C19 10.45 18.55 10 18 10H14V18Z" stroke="#2563EB" stroke-width="2" stroke-linecap="round" stroke-linejoin="round" fill="none"/>
<path d="M8 18H14" stroke="#2563EB" stroke-width="2" stroke-linecap="round"/>
</svg>
